# Blender v2.91.2 OBJ File: 'ZombieContainmentGameAssets.blend'
# www.blender.org
mtllib Caliber.mtl
o Caliber_Plane.051
v 0.104167 0.477092 0.050000
v -0.104167 0.477092 0.050000
v -0.364583 0.477092 0.050000
v -0.364583 0.425009 0.050000
v -0.416667 0.425009 0.050000
v -0.416667 0.372925 0.050000
v -0.468750 0.372925 0.050000
v -0.312500 0.268759 0.050000
v -0.260417 0.268759 0.050000
v -0.260417 0.320842 0.050000
v -0.104167 0.320842 0.050000
v 0.104167 0.320842 0.050000
v 0.260417 0.320842 0.050000
v 0.260417 0.268759 0.050000
v 0.312500 0.268759 0.050000
v 0.416667 0.372925 0.050000
v 0.468750 0.372925 0.050000
v 0.312500 0.112509 0.050000
v -0.312500 0.112509 0.050000
v -0.468750 0.112509 0.050000
v -0.468750 -0.095825 0.050000
v -0.312500 -0.095825 0.050000
v 0.312500 -0.095825 0.050000
v 0.468750 -0.095825 0.050000
v 0.468750 0.112509 0.050000
v 0.312500 -0.252075 0.050000
v 0.260417 -0.252075 0.050000
v 0.260417 -0.304158 0.050000
v 0.104167 -0.304158 0.050000
v -0.104167 -0.304158 0.050000
v -0.260417 -0.304158 0.050000
v -0.260417 -0.252075 0.050000
v -0.312500 -0.252075 0.050000
v -0.416667 -0.356241 0.050000
v -0.468750 -0.356241 0.050000
v -0.416667 -0.408325 0.050000
v -0.364584 -0.408325 0.050000
v -0.364584 -0.460408 0.050000
v -0.104167 -0.460408 0.050000
v 0.104167 -0.460408 0.050000
v 0.364583 -0.408325 0.050000
v 0.364583 -0.460408 0.050000
v 0.416667 -0.408325 0.050000
v 0.416667 -0.356241 0.050000
v 0.468750 -0.356241 0.050000
v 0.416667 0.425009 0.050000
v 0.364583 0.425009 0.050000
v 0.364584 0.477092 0.050000
v 0.104167 0.477092 -0.050000
v -0.104167 0.477092 -0.050000
v -0.364583 0.477092 -0.050000
v -0.364583 0.425009 -0.050000
v -0.416667 0.425009 -0.050000
v -0.416667 0.372925 -0.050000
v -0.468750 0.372925 -0.050000
v -0.312500 0.268759 -0.050000
v -0.260417 0.268759 -0.050000
v -0.260417 0.320842 -0.050000
v -0.104167 0.320842 -0.050000
v 0.104167 0.320842 -0.050000
v 0.260417 0.320842 -0.050000
v 0.260417 0.268759 -0.050000
v 0.312500 0.268759 -0.050000
v 0.416667 0.372925 -0.050000
v 0.468750 0.372925 -0.050000
v 0.312500 0.112509 -0.050000
v -0.312500 0.112509 -0.050000
v -0.468750 0.112509 -0.050000
v -0.468750 -0.095825 -0.050000
v -0.312500 -0.095825 -0.050000
v 0.312500 -0.095825 -0.050000
v 0.468750 -0.095825 -0.050000
v 0.468750 0.112509 -0.050000
v 0.312500 -0.252075 -0.050000
v 0.260417 -0.252075 -0.050000
v 0.260417 -0.304158 -0.050000
v 0.104167 -0.304158 -0.050000
v -0.104167 -0.304158 -0.050000
v -0.260417 -0.304158 -0.050000
v -0.260417 -0.252075 -0.050000
v -0.312500 -0.252075 -0.050000
v -0.416667 -0.356241 -0.050000
v -0.468750 -0.356241 -0.050000
v -0.416667 -0.408325 -0.050000
v -0.364584 -0.408325 -0.050000
v -0.364584 -0.460408 -0.050000
v -0.104167 -0.460408 -0.050000
v 0.104167 -0.460408 -0.050000
v 0.364583 -0.408325 -0.050000
v 0.364583 -0.460408 -0.050000
v 0.416667 -0.408325 -0.050000
v 0.416667 -0.356241 -0.050000
v 0.468750 -0.356241 -0.050000
v 0.416667 0.425009 -0.050000
v 0.364583 0.425009 -0.050000
v 0.364584 0.477092 -0.050000
v 0.052084 0.789592 0.100000
v 0.052084 0.737509 0.100000
v 0.104167 0.737509 0.100000
v -0.052083 0.737509 0.100000
v -0.052083 0.789592 0.100000
v -0.104166 0.737509 0.100000
v 0.104167 0.477092 0.100000
v -0.104167 0.477092 0.100000
v -0.104167 0.320842 0.100000
v 0.104167 0.320842 0.100000
v 0.312500 0.112509 0.100000
v 0.208334 0.112509 0.100000
v 0.208334 0.164592 0.100000
v 0.156250 0.164592 0.100000
v 0.104167 0.060425 0.100000
v 0.052083 0.060425 0.100000
v 0.000000 0.164592 0.100000
v -0.052083 0.060425 0.100000
v -0.156250 0.060425 0.100000
v -0.156250 0.164592 0.100000
v -0.208333 0.112509 0.100000
v -0.208333 0.164592 0.100000
v -0.312500 0.112509 0.100000
v -0.468750 0.112509 0.100000
v -0.781251 0.112509 0.100000
v -0.781251 0.060425 0.100000
v -0.833334 0.060425 0.100000
v -0.833334 -0.043741 0.100000
v -0.781251 -0.043741 0.100000
v -0.781251 -0.095825 0.100000
v -0.468750 -0.095825 0.100000
v -0.312500 -0.095825 0.100000
v -0.208333 -0.095825 0.100000
v -0.052083 -0.043741 0.100000
v 0.052083 -0.043741 0.100000
v 0.208333 -0.043741 0.100000
v 0.208333 -0.095825 0.100000
v 0.312500 -0.095825 0.100000
v 0.468750 -0.095825 0.100000
v 0.781250 -0.043741 0.100000
v 0.781250 -0.095825 0.100000
v 0.833333 -0.043741 0.100000
v 0.833333 0.060425 0.100000
v 0.781250 0.060425 0.100000
v 0.781250 0.112509 0.100000
v 0.468750 0.112509 0.100000
v 0.104167 -0.304158 0.100000
v -0.104167 -0.304158 0.100000
v -0.104167 -0.460408 0.100000
v 0.104167 -0.460408 0.100000
v 0.104167 -0.772908 0.100000
v 0.052083 -0.772908 0.100000
v -0.052083 -0.772908 0.100000
v -0.104167 -0.772908 0.100000
v -0.052084 -0.824991 0.100000
v 0.052083 -0.824991 0.100000
v -0.104167 -0.199991 0.100000
v -0.156250 -0.199991 0.100000
v -0.156250 -0.147908 0.100000
v -0.208333 -0.147908 0.100000
v 0.104167 -0.199991 0.100000
v 0.156250 -0.199991 0.100000
v 0.156250 -0.147908 0.100000
v 0.208333 -0.147908 0.100000
v -0.156250 0.216675 0.100000
v -0.104167 0.216675 0.100000
v 0.104167 0.216675 0.100000
v 0.156250 0.216675 0.100000
v 0.052084 0.789592 -0.100000
v 0.052084 0.737509 -0.100000
v 0.104167 0.737509 -0.100000
v -0.052083 0.737509 -0.100000
v -0.052083 0.789592 -0.100000
v -0.104166 0.737509 -0.100000
v 0.104167 0.477092 -0.100000
v -0.104167 0.477092 -0.100000
v -0.104167 0.320842 -0.100000
v 0.104167 0.320842 -0.100000
v 0.312500 0.112509 -0.100000
v 0.208334 0.112509 -0.100000
v 0.208334 0.164592 -0.100000
v 0.156250 0.164592 -0.100000
v 0.052083 0.060425 -0.100000
v -0.052083 0.060425 -0.100000
v -0.156250 0.164592 -0.100000
v -0.208333 0.112509 -0.100000
v -0.208333 0.164592 -0.100000
v -0.312500 0.112509 -0.100000
v -0.468750 0.112509 -0.100000
v -0.781251 0.112509 -0.100000
v -0.781251 0.060425 -0.100000
v -0.833334 0.060425 -0.100000
v -0.833334 -0.043741 -0.100000
v -0.781251 -0.043741 -0.100000
v -0.781251 -0.095825 -0.100000
v -0.468750 -0.095825 -0.100000
v -0.312500 -0.095825 -0.100000
v -0.208333 -0.095825 -0.100000
v -0.052083 -0.043741 -0.100000
v 0.000000 -0.043741 -0.100000
v 0.052083 -0.043741 -0.100000
v 0.208333 -0.095825 -0.100000
v 0.312500 -0.095825 -0.100000
v 0.468750 -0.095825 -0.100000
v 0.781250 -0.043741 -0.100000
v 0.781250 -0.095825 -0.100000
v 0.833333 -0.043741 -0.100000
v 0.833333 0.060425 -0.100000
v 0.781250 0.060425 -0.100000
v 0.781250 0.112509 -0.100000
v 0.468750 0.112509 -0.100000
v 0.104167 -0.304158 -0.100000
v -0.104167 -0.304158 -0.100000
v -0.104167 -0.460408 -0.100000
v 0.104167 -0.460408 -0.100000
v 0.104167 -0.772908 -0.100000
v 0.052083 -0.772908 -0.100000
v -0.000000 -0.772908 -0.100000
v -0.052083 -0.772908 -0.100000
v -0.104167 -0.772908 -0.100000
v -0.052084 -0.824991 -0.100000
v 0.052083 -0.824991 -0.100000
v -0.104167 -0.199991 -0.100000
v -0.156250 -0.199991 -0.100000
v -0.156250 -0.147908 -0.100000
v -0.208333 -0.147908 -0.100000
v 0.104167 -0.199991 -0.100000
v 0.156250 -0.199991 -0.100000
v 0.156250 -0.147908 -0.100000
v 0.208333 -0.147908 -0.100000
v -0.156250 0.216675 -0.100000
v -0.104167 0.216675 -0.100000
v 0.104167 0.216675 -0.100000
v 0.156250 0.216675 -0.100000
vt 0.666667 0.833333
vt 0.666667 0.854167
vt 0.666667 0.854167
vt 0.666667 0.833333
vt 0.593750 0.822917
vt 0.593750 0.770833
vt 0.583333 0.770833
vt 0.583333 0.760417
vt 0.572917 0.760417
vt 0.572917 0.750000
vt 0.520833 0.750000
vt 0.520833 0.781250
vt 0.552083 0.781250
vt 0.552083 0.791667
vt 0.562500 0.791667
vt 0.562500 0.822917
vt 0.437500 0.791667
vt 0.437500 0.822917
vt 0.437500 0.822917
vt 0.437500 0.822917
vt 0.437500 0.822917
vt 0.437500 0.791667
vt 0.447917 0.791667
vt 0.447917 0.781250
vt 0.479167 0.781250
vt 0.479167 0.750000
vt 0.427083 0.750000
vt 0.427083 0.760417
vt 0.416667 0.760417
vt 0.416667 0.770833
vt 0.406250 0.770833
vt 0.406250 0.822917
vt 0.447917 0.906250
vt 0.479167 0.906250
vt 0.479167 0.906250
vt 0.447917 0.906250
vt 0.479167 0.937500
vt 0.447917 0.895833
vt 0.437500 0.895833
vt 0.437500 0.864583
vt 0.406250 0.864583
vt 0.406250 0.916667
vt 0.416667 0.916667
vt 0.416667 0.927083
vt 0.427083 0.927083
vt 0.427083 0.937500
vt 0.520833 0.906250
vt 0.520833 0.937500
vt 0.572917 0.937500
vt 0.572917 0.927083
vt 0.583333 0.927083
vt 0.583333 0.916667
vt 0.593750 0.916667
vt 0.593750 0.864583
vt 0.562500 0.864583
vt 0.562500 0.895833
vt 0.552083 0.895833
vt 0.552083 0.906250
vt 0.520833 0.781250
vt 0.520833 0.750000
vt 0.572917 0.750000
vt 0.572917 0.760417
vt 0.583333 0.760417
vt 0.583333 0.770833
vt 0.593750 0.770833
vt 0.593750 0.822917
vt 0.562500 0.822917
vt 0.562500 0.791667
vt 0.552083 0.791667
vt 0.552083 0.781250
vt 0.593750 0.822917
vt 0.593750 0.822917
vt 0.479167 0.750000
vt 0.427083 0.750000
vt 0.520833 0.937500
vt 0.572917 0.937500
vt 0.447917 0.791667
vt 0.562500 0.895833
vt 0.552083 0.895833
vt 0.427083 0.927083
vt 0.427083 0.937500
vt 0.416667 0.927083
vt 0.416667 0.916667
vt 0.406250 0.916667
vt 0.447917 0.781250
vt 0.483073 0.893880
vt 0.483073 0.893880
vt 0.483073 0.893880
vt 0.483073 0.893880
vt 0.447917 0.895833
vt 0.437500 0.895833
vt 0.406250 0.864583
vt 0.483073 0.893880
vt 0.483073 0.893880
vt 0.483073 0.893880
vt 0.483073 0.893880
vt 0.562500 0.864583
vt 0.562500 0.864583
vt 0.562500 0.864583
vt 0.406250 0.770833
vt 0.406250 0.822917
vt 0.406250 0.822917
vt 0.406250 0.822917
vt 0.437500 0.864583
vt 0.437500 0.864583
vt 0.437500 0.864583
vt 0.520833 0.750000
vt 0.520833 0.750000
vt 0.483073 0.893880
vt 0.483073 0.893880
vt 0.483073 0.893880
vt 0.483073 0.893880
vt 0.520833 0.906250
vt 0.552083 0.906250
vt 0.593750 0.864583
vt 0.593750 0.916667
vt 0.583333 0.916667
vt 0.583333 0.927083
vt 0.572917 0.927083
vt 0.479167 0.781250
vt 0.479167 0.750000
vt 0.479167 0.750000
vt 0.479167 0.906250
vt 0.479167 0.906250
vt 0.483073 0.893880
vt 0.483073 0.893880
vt 0.483073 0.893880
vt 0.483073 0.893880
vt 0.406250 0.864583
vt 0.406250 0.864583
vt 0.483073 0.893880
vt 0.483073 0.893880
vt 0.483073 0.893880
vt 0.483073 0.893880
vt 0.483073 0.893880
vt 0.483073 0.893880
vt 0.483073 0.893880
vt 0.483073 0.893880
vt 0.520833 0.906250
vt 0.520833 0.906250
vt 0.416667 0.770833
vt 0.416667 0.760417
vt 0.427083 0.760417
vt 0.520833 0.781250
vt 0.520833 0.781250
vt 0.520833 0.937500
vt 0.520833 0.937500
vt 0.593750 0.864583
vt 0.593750 0.864583
vt 0.483073 0.893880
vt 0.483073 0.893880
vt 0.483073 0.893880
vt 0.483073 0.893880
vt 0.479167 0.937500
vt 0.479167 0.937500
vt 0.479167 0.937500
vt 0.479167 0.781250
vt 0.479167 0.781250
vt 0.520833 0.989583
vt 0.520833 0.885417
vt 0.531250 0.885417
vt 0.531250 0.875000
vt 0.541667 0.875000
vt 0.541667 0.864583
vt 0.541667 0.833333
vt 0.510417 0.833333
vt 0.510417 0.854167
vt 0.520833 0.854167
vt 0.500000 0.875000
vt 0.468750 0.854167
vt 0.468750 0.875000
vt 0.468750 0.885417
vt 0.479167 0.885417
vt 0.479167 0.989583
vt 0.489584 0.989583
vt 0.489584 1.000000
vt 0.510417 1.000000
vt 0.510417 0.989583
vt 0.520833 0.802083
vt 0.520833 0.802083
vt 0.479167 0.989583
vt 0.489583 0.833333
vt 0.656250 0.864583
vt 0.656250 0.854167
vt 0.656250 0.833333
vt 0.656250 0.822917
vt 0.562500 0.822917
vt 0.541667 0.822917
vt 0.541667 0.812500
vt 0.531250 0.812500
vt 0.531250 0.802083
vt 0.520833 0.687500
vt 0.510417 0.687500
vt 0.510417 0.677083
vt 0.489583 0.677083
vt 0.489583 0.687500
vt 0.479167 0.687500
vt 0.479167 0.802083
vt 0.468750 0.802083
vt 0.468750 0.812500
vt 0.458333 0.812500
vt 0.458333 0.822917
vt 0.343750 0.822917
vt 0.343750 0.833333
vt 0.333333 0.833333
vt 0.333333 0.854167
vt 0.343750 0.854167
vt 0.343750 0.864583
vt 0.458333 0.864583
vt 0.458333 0.875000
vt 0.489583 0.854167
vt 0.562500 0.822917
vt 0.541667 0.822917
vt 0.483073 0.893880
vt 0.483073 0.893880
vt 0.483073 0.893880
vt 0.483073 0.893880
vt 0.520833 0.989583
vt 0.483073 0.893880
vt 0.483073 0.893880
vt 0.483073 0.893880
vt 0.483073 0.893880
vt 0.489583 0.854167
vt 0.510417 0.854167
vt 0.520833 0.885417
vt 0.510417 0.989583
vt 0.510417 1.000000
vt 0.489584 1.000000
vt 0.489584 0.989583
vt 0.479167 0.885417
vt 0.468750 0.885417
vt 0.468750 0.875000
vt 0.458333 0.875000
vt 0.458333 0.864583
vt 0.343750 0.864583
vt 0.343750 0.854167
vt 0.333333 0.854167
vt 0.333333 0.833333
vt 0.343750 0.833333
vt 0.343750 0.822917
vt 0.458333 0.822917
vt 0.458333 0.812500
vt 0.468750 0.812500
vt 0.468750 0.802083
vt 0.479167 0.802083
vt 0.479167 0.687500
vt 0.489583 0.687500
vt 0.489583 0.677083
vt 0.510417 0.677083
vt 0.510417 0.687500
vt 0.500000 0.687500
vt 0.500000 0.833333
vt 0.489583 0.833333
vt 0.483073 0.893880
vt 0.483073 0.893880
vt 0.483073 0.893880
vt 0.483073 0.893880
vt 0.483073 0.893880
vt 0.483073 0.893880
vt 0.483073 0.893880
vt 0.483073 0.893880
vt 0.483073 0.893880
vt 0.483073 0.893880
vt 0.483073 0.893880
vt 0.483073 0.893880
vt 0.483073 0.893880
vt 0.483073 0.893880
vt 0.483073 0.893880
vt 0.483073 0.893880
vt 0.483073 0.893880
vt 0.483073 0.893880
vt 0.483073 0.893880
vt 0.483073 0.893880
vt 0.531250 0.875000
vt 0.531250 0.885417
vt 0.510417 0.833333
vt 0.520833 0.687500
vt 0.531250 0.802083
vt 0.531250 0.812500
vt 0.541667 0.812500
vt 0.656250 0.822917
vt 0.656250 0.833333
vt 0.656250 0.854167
vt 0.656250 0.864583
vt 0.541667 0.864583
vt 0.541667 0.875000
vt 0.483073 0.893880
vt 0.483073 0.893880
vt 0.483073 0.893880
vt 0.483073 0.893880
vt 0.483073 0.893880
vt 0.483073 0.893880
vt 0.483073 0.893880
vt 0.483073 0.893880
vn -1.0000 0.0000 0.0000
vn -0.0000 0.0000 -1.0000
vn 0.0000 1.0000 0.0000
vn 0.0000 -0.0000 1.0000
vn 0.0000 -1.0000 0.0000
vn 1.0000 -0.0000 0.0000
vn 0.1483 -0.9889 0.0000
g Caliber_Plane.051_PICKUPS
usemtl PICKUPS
s off
f 138/1/1 139/2/1 204/3/1 203/4/1
f 24/5/2 45/6/2 44/7/2 43/8/2 41/9/2 42/10/2 40/11/2 29/12/2 28/13/2 27/14/2 26/15/2 23/16/2
f 33/17/1 22/18/1 128/19/1 193/20/1 70/21/1 81/22/1
f 33/17/2 32/23/2 31/24/2 30/25/2 39/26/2 38/27/2 37/28/2 36/29/2 34/30/2 35/31/2 21/32/2 22/18/2
f 10/33/3 11/34/3 59/35/3 58/36/3
f 2/37/2 11/34/2 10/33/2 9/38/2 8/39/2 19/40/2 20/41/2 7/42/2 6/43/2 5/44/2 4/45/2 3/46/2
f 12/47/2 1/48/2 48/49/2 47/50/2 46/51/2 16/52/2 17/53/2 25/54/2 18/55/2 15/56/2 14/57/2 13/58/2
f 77/59/4 88/60/4 90/61/4 89/62/4 91/63/4 92/64/4 93/65/4 72/66/4 71/67/4 74/68/4 75/69/4 76/70/4
f 45/6/1 24/5/1 135/71/1 200/72/1 72/66/1 93/65/1
f 38/27/3 39/26/3 87/73/3 86/74/3
f 48/49/5 1/48/5 49/75/5 96/76/5
f 32/23/5 33/17/5 81/22/5 80/77/5
f 26/15/5 27/14/5 75/69/5 74/68/5
f 27/14/6 28/13/6 76/70/6 75/69/6
f 14/57/3 15/56/3 63/78/3 62/79/3
f 42/10/1 41/9/1 89/62/1 90/61/1
f 41/9/3 43/8/3 91/63/3 89/62/3
f 43/8/1 44/7/1 92/64/1 91/63/1
f 3/46/6 4/45/6 52/80/6 51/81/6
f 44/7/3 45/6/3 93/65/3 92/64/3
f 4/45/5 5/44/5 53/82/5 52/80/5
f 5/44/6 6/43/6 54/83/6 53/82/6
f 6/43/5 7/42/5 55/84/5 54/83/5
f 42/10/3 90/61/3 88/60/3 40/11/3
f 31/24/1 32/23/1 80/77/1 79/85/1
f 70/86/3 193/87/3 192/88/3 69/89/3
f 8/39/3 9/38/3 57/90/3 56/91/3
f 9/38/1 10/33/1 58/36/1 57/90/1
f 7/42/6 20/41/6 68/92/6 55/84/6
f 66/93/5 175/94/5 207/95/5 73/96/5
f 66/97/1 18/55/1 107/98/1 175/99/1
f 21/32/6 35/31/6 83/100/6 69/101/6 192/102/6 127/103/6
f 19/40/6 67/104/6 184/105/6 119/106/6
f 40/11/5 88/60/5 211/107/5 146/108/5
f 60/109/1 49/110/1 171/111/1 174/112/1
f 60/113/4 61/114/4 62/79/4 63/78/4 66/97/4 73/115/4 65/116/4 64/117/4 94/118/4 95/119/4 96/76/4 49/75/4
f 30/25/5 31/24/5 79/85/5 78/120/5
f 87/73/4 39/26/4 145/121/4 210/122/4
f 59/35/4 11/34/4 105/123/4 173/124/4
f 13/58/6 14/57/6 62/79/6 61/114/6
f 72/125/3 200/126/3 199/127/3 71/128/3
f 68/92/1 20/41/1 120/129/1 185/130/1
f 67/131/5 68/132/5 185/133/5 184/134/5
f 11/135/6 2/136/6 104/137/6 105/138/6
f 12/47/4 60/113/4 174/139/4 106/140/4
f 35/31/3 34/30/3 82/141/3 83/100/3
f 34/30/6 36/29/6 84/142/6 82/141/6
f 36/29/3 37/28/3 85/143/3 84/142/3
f 37/28/6 38/27/6 86/74/6 85/143/6
f 16/52/1 46/51/1 94/118/1 64/117/1
f 46/51/5 47/50/5 95/119/5 94/118/5
f 77/59/4 29/12/4 143/144/4 208/145/4
f 49/75/4 1/48/4 103/146/4 171/147/4
f 25/54/7 73/115/7 207/148/7 142/149/7
f 47/50/1 48/49/1 96/76/1 95/119/1
f 17/53/5 16/52/5 64/117/5 65/116/5
f 17/53/1 65/116/1 73/115/1 25/54/1
f 24/150/3 23/151/3 134/152/3 135/153/3
f 2/37/4 50/154/4 172/155/4 104/156/4
f 30/25/4 78/120/4 209/157/4 144/158/4
f 99/159/2 103/146/2 106/140/2 163/160/2 164/161/2 110/162/2 109/163/2 108/164/2 132/165/2 131/166/2 112/167/2 111/168/2 113/169/2 115/170/2 116/171/2 161/172/2 162/173/2 105/123/2 104/156/2 102/174/2 100/175/2 101/176/2 97/177/2 98/178/2
f 143/144/1 157/179/1 223/180/1 208/145/1
f 102/174/6 104/156/6 172/155/6 170/181/6
f 130/182/2 131/166/2 132/165/2 108/164/2 107/98/2 142/149/2 141/183/2 140/184/2 139/2/2 138/1/2 136/185/2 137/186/2 135/71/2 134/187/2 133/188/2 160/189/2 159/190/2 158/191/2 157/179/2 143/144/2 146/108/2 147/192/2 148/193/2 152/194/2 151/195/2 149/196/2 150/197/2 145/121/2 144/158/2 153/198/2 154/199/2 155/200/2 156/201/2 129/202/2 128/19/2 127/103/2 126/203/2 125/204/2 124/205/2 123/206/2 122/207/2 121/208/2 120/129/2 119/106/2 117/209/2 118/210/2 116/171/2 115/170/2 113/169/2 111/168/2 112/167/2 114/211/2
f 133/188/3 134/187/3 199/212/3 198/213/3
f 26/15/6 74/68/6 71/67/6 199/212/6 134/187/6 23/16/6
f 15/56/6 18/55/6 66/97/6 63/78/6
f 12/214/1 106/215/1 103/216/1 1/217/1
f 52/80/4 53/82/4 54/83/4 55/84/4 68/92/4 67/104/4 56/91/4 57/90/4 58/36/4 59/35/4 50/154/4 51/81/4
f 2/37/5 3/46/5 51/81/5 50/154/5
f 99/159/1 167/218/1 171/147/1 103/146/1
f 88/219/1 77/220/1 208/221/1 211/222/1
f 180/223/4 179/224/4 229/225/4 174/139/4 171/147/4 167/218/4 166/226/4 165/227/4 169/228/4 168/229/4 170/181/4 172/155/4 173/124/4 228/230/4 227/231/4 181/232/4 183/233/4 182/234/4 184/105/4 185/130/4 186/235/4 187/236/4 188/237/4 189/238/4 190/239/4 191/240/4 192/102/4 193/20/4 194/241/4 222/242/4 221/243/4 220/244/4 219/245/4 209/157/4 210/122/4 216/246/4 215/247/4 217/248/4 218/249/4 213/250/4 214/251/4 196/252/4 195/253/4
f 25/254/5 142/255/5 107/256/5 18/257/5
f 22/258/3 21/259/3 127/260/3 128/261/3
f 39/262/6 30/263/6 144/264/6 145/265/6
f 87/266/6 210/267/6 209/268/6 78/269/6
f 12/47/3 13/58/3 61/114/3 60/113/3
f 19/270/5 119/271/5 120/272/5 20/273/5
f 178/274/4 230/275/4 229/225/4 179/224/4 197/276/4 196/252/4 214/251/4 213/250/4 212/277/4 211/107/4 208/145/4 223/180/4 224/278/4 225/279/4 226/280/4 198/213/4 199/212/4 200/72/4 202/281/4 201/282/4 203/4/4 204/3/4 205/283/4 206/284/4 207/148/4 175/99/4 176/285/4 177/286/4
f 50/287/6 59/288/6 173/289/6 172/290/6
f 81/22/4 70/21/4 69/101/4 83/100/4 82/141/4 84/142/4 85/143/4 86/74/4 87/73/4 78/120/4 79/85/4 80/77/4
f 141/183/5 142/149/5 207/148/5 206/284/5
f 137/186/3 202/281/3 200/72/3 135/71/3
f 152/194/1 148/193/1 213/250/1 218/249/1
f 151/195/3 152/194/3 218/249/3 217/248/3
f 40/291/1 146/292/1 143/293/1 29/294/1
f 148/193/3 147/192/3 212/277/3 213/250/3
f 128/19/3 129/202/3 194/241/3 193/20/3
f 112/167/6 131/166/6 197/276/6 179/224/6
f 131/166/5 130/182/5 195/253/5 196/252/5 197/276/5
f 117/209/5 119/106/5 184/105/5 182/234/5
f 108/164/1 109/163/1 177/286/1 176/285/1
f 130/182/1 114/211/1 180/223/1 195/253/1
f 107/98/5 108/164/5 176/285/5 175/99/5
f 126/203/3 127/103/3 192/102/3 191/240/3
f 154/199/3 153/198/3 219/245/3 220/244/3
f 155/200/6 154/199/6 220/244/6 221/243/6
f 156/201/3 155/200/3 221/243/3 222/242/3
f 129/202/6 156/201/6 222/242/6 194/241/6
f 118/210/6 117/209/6 182/234/6 183/233/6
f 157/179/3 158/191/3 224/278/3 223/180/3
f 158/191/1 159/190/1 225/279/1 224/278/1
f 159/190/3 160/189/3 226/280/3 225/279/3
f 144/158/6 209/157/6 219/245/6 153/198/6
f 116/171/5 118/210/5 183/233/5 181/232/5
f 160/189/1 133/188/1 198/213/1 226/280/1
f 161/172/6 116/171/6 181/232/6 227/231/6
f 137/186/1 136/185/1 201/282/1 202/281/1
f 120/129/5 121/208/5 186/235/5 185/130/5
f 162/173/5 161/172/5 227/231/5 228/230/5
f 136/185/3 138/1/3 203/4/3 201/282/3
f 105/123/6 162/173/6 228/230/6 173/124/6
f 106/140/1 174/139/1 229/225/1 163/160/1
f 139/2/5 140/184/5 205/283/5 204/3/5
f 121/208/6 122/207/6 187/236/6 186/235/6
f 140/184/1 141/183/1 206/284/1 205/283/1
f 28/13/5 29/12/5 77/59/5 76/70/5
f 122/207/5 123/206/5 188/237/5 187/236/5
f 145/121/6 150/197/6 216/246/6 210/122/6
f 123/206/6 124/205/6 189/238/6 188/237/6
f 124/205/3 125/204/3 190/239/3 189/238/3
f 19/40/1 8/39/1 56/91/1 67/104/1
f 164/161/5 163/160/5 229/225/5 230/275/5
f 125/204/6 126/203/6 191/240/6 190/239/6
f 110/162/1 164/161/1 230/275/1 178/274/1
f 147/192/1 146/108/1 211/107/1 212/277/1
f 114/211/3 112/167/3 179/224/3 180/223/3
f 98/178/1 97/177/1 165/227/1 166/226/1
f 109/163/5 110/162/5 178/274/5 177/286/5
f 99/159/5 98/178/5 166/226/5 167/218/5
f 101/176/6 100/175/6 168/229/6 169/228/6
f 100/175/5 102/174/5 170/181/5 168/229/5
f 97/177/5 101/176/5 169/228/5 165/227/5
f 150/197/3 149/196/3 215/247/3 216/246/3
f 149/196/6 151/195/6 217/248/6 215/247/6
