# Blender v2.91.2 OBJ File: 'ZombieContainmentGameAssets.blend'
# www.blender.org
mtllib Dexterity.mtl
o Dexterity_Plane.064
v -0.769366 -0.106063 0.050000
v -0.769366 -0.053980 0.050000
v -0.717283 -0.106063 0.050000
v -0.717283 -0.158146 0.050000
v -0.665200 -0.158146 0.050000
v -0.665200 -0.053980 0.050000
v -0.508950 -0.158146 0.050000
v -0.508950 -0.053980 0.050000
v -0.456866 -0.106063 0.050000
v -0.456866 -0.158146 0.050000
v -0.404783 -0.106063 0.050000
v -0.404783 -0.053980 0.050000
v -0.508950 0.206437 0.050000
v -0.456866 0.206437 0.050000
v -0.613116 0.206437 0.050000
v -0.665200 0.206437 0.050000
v -0.613116 0.310603 0.050000
v -0.561033 0.310603 0.050000
v -0.561033 0.362687 0.050000
v -0.508950 0.362687 0.050000
v -0.456866 0.310603 0.050000
v -0.404783 0.310603 0.050000
v -0.404783 0.362687 0.050000
v -0.352700 0.362687 0.050000
v -0.352700 0.414770 0.050000
v -0.300617 0.414770 0.050000
v -0.300617 0.466853 0.050000
v -0.196450 0.466853 0.050000
v -0.196450 0.518937 0.050000
v 0.220216 0.518937 0.050000
v 0.220216 0.466853 0.050000
v 0.324383 0.466853 0.050000
v 0.324383 0.571020 0.050000
v 0.376466 0.518937 0.050000
v 0.376466 0.571020 0.050000
v 0.428549 0.518937 0.050000
v 0.428549 0.466853 0.050000
v 0.480633 0.466853 0.050000
v 0.480633 0.414770 0.050000
v 0.532716 0.414770 0.050000
v 0.532716 0.362687 0.050000
v 0.584799 0.362687 0.050000
v 0.584799 0.310603 0.050000
v 0.636883 0.310603 0.050000
v 0.636883 0.206437 0.050000
v 0.688966 0.206437 0.050000
v 0.532716 0.206437 0.050000
v 0.480633 0.206437 0.050000
v 0.480633 0.310603 0.050000
v 0.428549 0.310603 0.050000
v 0.428549 0.362687 0.050000
v 0.376466 0.362687 0.050000
v 0.376466 0.414770 0.050000
v 0.324383 0.414770 0.050000
v 0.688966 -0.210229 0.050000
v 0.636883 -0.210229 0.050000
v 0.532716 -0.210229 0.050000
v 0.480633 -0.210229 0.050000
v 0.480633 -0.314396 0.050000
v 0.428549 -0.314396 0.050000
v 0.428549 -0.366479 0.050000
v 0.376466 -0.366479 0.050000
v 0.376466 -0.418563 0.050000
v 0.324383 -0.418563 0.050000
v 0.324383 -0.470646 0.050000
v 0.220216 -0.470646 0.050000
v 0.220216 -0.522729 0.050000
v -0.196450 -0.522729 0.050000
v -0.196450 -0.470646 0.050000
v -0.300617 -0.574812 0.050000
v -0.300617 -0.470646 0.050000
v -0.352700 -0.522729 0.050000
v -0.352700 -0.574812 0.050000
v -0.404783 -0.522729 0.050000
v -0.404783 -0.470646 0.050000
v -0.456866 -0.470646 0.050000
v -0.456866 -0.418563 0.050000
v -0.508950 -0.418563 0.050000
v -0.508950 -0.366479 0.050000
v -0.508950 -0.314396 0.050000
v -0.561033 -0.366479 0.050000
v -0.561033 -0.314396 0.050000
v -0.508950 -0.262313 0.050000
v -0.456866 -0.314396 0.050000
v -0.456866 -0.262313 0.050000
v -0.404783 -0.314396 0.050000
v -0.404783 -0.366479 0.050000
v -0.352700 -0.366479 0.050000
v -0.352700 -0.418563 0.050000
v -0.300617 -0.418563 0.050000
v -0.300617 -0.626896 0.050000
v -0.196450 -0.626896 0.050000
v -0.196450 -0.678979 0.050000
v 0.220216 -0.626896 0.050000
v 0.220216 -0.678979 0.050000
v 0.324383 -0.626896 0.050000
v 0.324383 -0.574812 0.050000
v 0.376466 -0.574812 0.050000
v 0.376466 -0.522729 0.050000
v 0.428549 -0.522729 0.050000
v 0.428549 -0.470646 0.050000
v 0.480633 -0.470646 0.050000
v 0.480633 -0.418563 0.050000
v 0.532716 -0.418563 0.050000
v 0.532716 -0.366479 0.050000
v 0.584799 -0.366479 0.050000
v 0.584799 -0.314396 0.050000
v 0.636883 -0.314396 0.050000
v 0.324383 0.623103 0.050000
v 0.220216 0.623103 0.050000
v 0.220216 0.675187 0.050000
v -0.196450 0.623103 0.050000
v -0.196450 0.675187 0.050000
v -0.300617 0.623103 0.050000
v -0.300617 0.571020 0.050000
v -0.352700 0.571020 0.050000
v -0.352700 0.518937 0.050000
v -0.404783 0.518937 0.050000
v -0.404783 0.466853 0.050000
v -0.456866 0.466853 0.050000
v -0.456866 0.414770 0.050000
v -0.508950 0.414770 0.050000
v -0.508950 -0.210229 0.050000
v -0.561033 -0.210229 0.050000
v -0.561033 -0.262313 0.050000
v -0.613116 -0.210229 0.050000
v -0.613116 -0.262313 0.050000
v -0.665200 -0.210229 0.050000
v 0.168133 -0.158146 0.050000
v -0.144367 -0.158146 0.050000
v -0.144367 -0.106063 0.050000
v 0.168133 -0.106063 0.050000
v -0.769366 -0.106063 -0.050000
v -0.769366 -0.053980 -0.050000
v -0.717283 -0.106063 -0.050000
v -0.717283 -0.158146 -0.050000
v -0.665200 -0.158146 -0.050000
v -0.665200 -0.053980 -0.050000
v -0.508950 -0.158146 -0.050000
v -0.508950 -0.053980 -0.050000
v -0.456866 -0.106063 -0.050000
v -0.456866 -0.158146 -0.050000
v -0.404783 -0.106063 -0.050000
v -0.404783 -0.053980 -0.050000
v -0.508950 0.206437 -0.050000
v -0.456866 0.206437 -0.050000
v -0.613116 0.206437 -0.050000
v -0.665200 0.206437 -0.050000
v -0.613116 0.310603 -0.050000
v -0.561033 0.310603 -0.050000
v -0.561033 0.362687 -0.050000
v -0.508950 0.362687 -0.050000
v -0.456866 0.310603 -0.050000
v -0.404783 0.310603 -0.050000
v -0.404783 0.362687 -0.050000
v -0.352700 0.362687 -0.050000
v -0.352700 0.414770 -0.050000
v -0.300617 0.414770 -0.050000
v -0.300617 0.466853 -0.050000
v -0.196450 0.466853 -0.050000
v -0.196450 0.518937 -0.050000
v 0.220216 0.518937 -0.050000
v 0.220216 0.466853 -0.050000
v 0.324383 0.466853 -0.050000
v 0.324383 0.571020 -0.050000
v 0.376466 0.518937 -0.050000
v 0.376466 0.571020 -0.050000
v 0.428549 0.518937 -0.050000
v 0.428549 0.466853 -0.050000
v 0.480633 0.466853 -0.050000
v 0.480633 0.414770 -0.050000
v 0.532716 0.414770 -0.050000
v 0.532716 0.362687 -0.050000
v 0.584799 0.362687 -0.050000
v 0.584799 0.310603 -0.050000
v 0.636883 0.310603 -0.050000
v 0.636883 0.206437 -0.050000
v 0.688966 0.206437 -0.050000
v 0.532716 0.206437 -0.050000
v 0.480633 0.206437 -0.050000
v 0.480633 0.310603 -0.050000
v 0.428549 0.310603 -0.050000
v 0.428549 0.362687 -0.050000
v 0.376466 0.362687 -0.050000
v 0.376466 0.414770 -0.050000
v 0.324383 0.414770 -0.050000
v 0.688966 -0.210229 -0.050000
v 0.636883 -0.210229 -0.050000
v 0.532716 -0.210229 -0.050000
v 0.480633 -0.210229 -0.050000
v 0.480633 -0.314396 -0.050000
v 0.428549 -0.314396 -0.050000
v 0.428549 -0.366479 -0.050000
v 0.376466 -0.366479 -0.050000
v 0.376466 -0.418563 -0.050000
v 0.324383 -0.418563 -0.050000
v 0.324383 -0.470646 -0.050000
v 0.220216 -0.470646 -0.050000
v 0.220216 -0.522729 -0.050000
v -0.196450 -0.522729 -0.050000
v -0.196450 -0.470646 -0.050000
v -0.300617 -0.574812 -0.050000
v -0.300617 -0.470646 -0.050000
v -0.352700 -0.522729 -0.050000
v -0.352700 -0.574812 -0.050000
v -0.404783 -0.522729 -0.050000
v -0.404783 -0.470646 -0.050000
v -0.456866 -0.470646 -0.050000
v -0.456866 -0.418563 -0.050000
v -0.508950 -0.418563 -0.050000
v -0.508950 -0.366479 -0.050000
v -0.508950 -0.314396 -0.050000
v -0.561033 -0.366479 -0.050000
v -0.561033 -0.314396 -0.050000
v -0.508950 -0.262313 -0.050000
v -0.456866 -0.314396 -0.050000
v -0.456866 -0.262313 -0.050000
v -0.404783 -0.314396 -0.050000
v -0.404783 -0.366479 -0.050000
v -0.352700 -0.366479 -0.050000
v -0.352700 -0.418563 -0.050000
v -0.300617 -0.418563 -0.050000
v -0.300617 -0.626896 -0.050000
v -0.196450 -0.626896 -0.050000
v -0.196450 -0.678979 -0.050000
v 0.220216 -0.626896 -0.050000
v 0.220216 -0.678979 -0.050000
v 0.324383 -0.626896 -0.050000
v 0.324383 -0.574812 -0.050000
v 0.376466 -0.574812 -0.050000
v 0.376466 -0.522729 -0.050000
v 0.428549 -0.522729 -0.050000
v 0.428549 -0.470646 -0.050000
v 0.480633 -0.470646 -0.050000
v 0.480633 -0.418563 -0.050000
v 0.532716 -0.418563 -0.050000
v 0.532716 -0.366479 -0.050000
v 0.584799 -0.366479 -0.050000
v 0.584799 -0.314396 -0.050000
v 0.636883 -0.314396 -0.050000
v 0.324383 0.623103 -0.050000
v 0.220216 0.623103 -0.050000
v 0.220216 0.675187 -0.050000
v -0.196450 0.623103 -0.050000
v -0.196450 0.675187 -0.050000
v -0.300617 0.623103 -0.050000
v -0.300617 0.571020 -0.050000
v -0.352700 0.571020 -0.050000
v -0.352700 0.518937 -0.050000
v -0.404783 0.518937 -0.050000
v -0.404783 0.466853 -0.050000
v -0.456866 0.466853 -0.050000
v -0.456866 0.414770 -0.050000
v -0.508950 0.414770 -0.050000
v -0.508950 -0.210229 -0.050000
v -0.561033 -0.210229 -0.050000
v -0.561033 -0.262313 -0.050000
v -0.613116 -0.210229 -0.050000
v -0.613116 -0.262313 -0.050000
v -0.665200 -0.210229 -0.050000
v 0.168133 -0.158146 -0.050000
v -0.144367 -0.158146 -0.050000
v -0.144367 -0.106063 -0.050000
v 0.168133 -0.106063 -0.050000
v -0.196450 -0.314396 0.100000
v 0.220216 -0.314396 0.100000
v 0.220216 -0.158146 0.100000
v 0.168133 -0.158146 0.100000
v -0.144367 -0.158146 0.100000
v -0.196450 -0.158146 0.100000
v -0.144367 -0.106063 0.100000
v -0.196450 -0.106063 0.100000
v -0.196450 0.258520 0.100000
v -0.144367 0.258520 0.100000
v 0.168133 0.258520 0.100000
v 0.220216 0.258520 0.100000
v 0.168133 0.310603 0.100000
v 0.116050 0.310603 0.100000
v 0.116050 0.362687 0.100000
v -0.092284 0.310603 0.100000
v -0.092284 0.362687 0.100000
v -0.144367 0.310603 0.100000
v 0.220216 -0.106063 0.100000
v 0.168133 -0.106063 0.100000
v -0.196450 -0.314396 -0.100000
v 0.220216 -0.314396 -0.100000
v 0.220216 -0.158146 -0.100000
v 0.168133 -0.158146 -0.100000
v -0.144367 -0.158146 -0.100000
v -0.196450 -0.158146 -0.100000
v -0.144367 -0.106063 -0.100000
v -0.196450 -0.106063 -0.100000
v -0.196450 0.258520 -0.100000
v -0.144367 0.258520 -0.100000
v 0.168133 0.258520 -0.100000
v 0.220216 0.258520 -0.100000
v 0.168133 0.310603 -0.100000
v 0.116050 0.310603 -0.100000
v 0.116050 0.362687 -0.100000
v -0.092284 0.310603 -0.100000
v -0.092284 0.362687 -0.100000
v -0.144367 0.310603 -0.100000
v 0.220216 -0.106063 -0.100000
v 0.168133 -0.106063 -0.100000
vt 0.031250 0.156250
vt 0.010417 0.156250
vt 0.010417 0.156250
vt 0.031250 0.156250
vt 0.208333 0.260417
vt 0.229167 0.260417
vt 0.229167 0.260417
vt 0.208333 0.260417
vt 0.208333 0.291667
vt 0.229167 0.291667
vt 0.229167 0.281250
vt 0.239583 0.281250
vt 0.239583 0.270833
vt 0.250000 0.270833
vt 0.250000 0.260417
vt 0.260416 0.260417
vt 0.260416 0.250000
vt 0.270833 0.250000
vt 0.270833 0.239583
vt 0.281250 0.239583
vt 0.281250 0.229167
vt 0.291666 0.229167
vt 0.291666 0.208333
vt 0.302083 0.208333
vt 0.302083 0.125000
vt 0.291666 0.125000
vt 0.291666 0.104167
vt 0.281250 0.104167
vt 0.281250 0.093750
vt 0.270833 0.093750
vt 0.270833 0.083333
vt 0.260416 0.083333
vt 0.260416 0.072917
vt 0.250000 0.072917
vt 0.250000 0.062500
vt 0.239583 0.062500
vt 0.239583 0.052083
vt 0.229167 0.052083
vt 0.229167 0.041667
vt 0.208333 0.041667
vt 0.208333 0.031250
vt 0.125000 0.031250
vt 0.125000 0.041667
vt 0.104166 0.041667
vt 0.104166 0.052083
vt 0.093750 0.052083
vt 0.093750 0.062500
vt 0.083333 0.062500
vt 0.083333 0.072917
vt 0.072917 0.072917
vt 0.072917 0.083333
vt 0.062500 0.083333
vt 0.062500 0.093750
vt 0.052083 0.093750
vt 0.052083 0.104167
vt 0.062500 0.104167
vt 0.062500 0.114583
vt 0.072917 0.114583
vt 0.072917 0.104167
vt 0.083333 0.104167
vt 0.083333 0.093750
vt 0.093750 0.093750
vt 0.093750 0.083333
vt 0.104166 0.083333
vt 0.104166 0.072917
vt 0.125000 0.072917
vt 0.125000 0.062500
vt 0.208333 0.062500
vt 0.208333 0.072917
vt 0.229167 0.072917
vt 0.229167 0.083333
vt 0.239583 0.083333
vt 0.239583 0.093750
vt 0.250000 0.093750
vt 0.250000 0.104167
vt 0.260416 0.104167
vt 0.260416 0.125000
vt 0.270833 0.125000
vt 0.270833 0.208333
vt 0.260416 0.208333
vt 0.260416 0.229167
vt 0.250000 0.229167
vt 0.250000 0.239583
vt 0.239583 0.239583
vt 0.239583 0.250000
vt 0.229167 0.250000
vt 0.208333 0.270833
vt 0.125000 0.270833
vt 0.125000 0.260417
vt 0.104166 0.260417
vt 0.104166 0.250000
vt 0.093750 0.250000
vt 0.093750 0.239583
vt 0.083333 0.239583
vt 0.083333 0.229167
vt 0.072917 0.229167
vt 0.072917 0.208333
vt 0.062500 0.208333
vt 0.062500 0.156250
vt 0.083333 0.156250
vt 0.083333 0.145833
vt 0.072917 0.145833
vt 0.072917 0.135417
vt 0.062500 0.135417
vt 0.062500 0.125000
vt 0.052083 0.125000
vt 0.052083 0.114583
vt 0.041667 0.114583
vt 0.041667 0.125000
vt 0.031250 0.125000
vt 0.031250 0.135417
vt 0.020833 0.135417
vt 0.020833 0.145833
vt 0.010417 0.145833
vt 0.031250 0.208333
vt 0.041667 0.208333
vt 0.041667 0.229167
vt 0.052083 0.229167
vt 0.052083 0.239583
vt 0.062500 0.239583
vt 0.062500 0.250000
vt 0.072917 0.250000
vt 0.072917 0.260417
vt 0.083333 0.260417
vt 0.083333 0.270833
vt 0.093750 0.270833
vt 0.093750 0.281250
vt 0.104166 0.281250
vt 0.104166 0.291667
vt 0.125000 0.291667
vt 0.125000 0.302083
vt 0.208333 0.302083
vt 0.208333 0.104167
vt 0.125000 0.104167
vt 0.125000 0.135417
vt 0.135417 0.135417
vt 0.197917 0.135417
vt 0.208333 0.135417
vt 0.062500 0.156250
vt 0.083333 0.156250
vt 0.270833 0.125000
vt 0.270833 0.208333
vt 0.135417 0.135417
vt 0.135417 0.135417
vt 0.197917 0.135417
vt 0.197917 0.135417
vt 0.072917 0.229167
vt 0.072917 0.208333
vt 0.197917 0.145833
vt 0.197917 0.135417
vt 0.135417 0.135417
vt 0.135417 0.145833
vt 0.291666 0.229167
vt 0.291666 0.208333
vt 0.062500 0.208333
vt 0.208333 0.104167
vt 0.125000 0.104167
vt 0.239583 0.270833
vt 0.239583 0.281250
vt 0.229167 0.281250
vt 0.229167 0.291667
vt 0.208333 0.291667
vt 0.208333 0.302083
vt 0.125000 0.302083
vt 0.125000 0.291667
vt 0.104166 0.291667
vt 0.104166 0.281250
vt 0.093750 0.281250
vt 0.093750 0.270833
vt 0.083333 0.270833
vt 0.083333 0.260417
vt 0.072917 0.260417
vt 0.072917 0.250000
vt 0.062500 0.250000
vt 0.062500 0.239583
vt 0.052083 0.239583
vt 0.052083 0.229167
vt 0.041667 0.229167
vt 0.041667 0.208333
vt 0.031250 0.208333
vt 0.010417 0.145833
vt 0.020833 0.145833
vt 0.020833 0.135417
vt 0.031250 0.135417
vt 0.031250 0.125000
vt 0.041667 0.125000
vt 0.041667 0.114583
vt 0.052083 0.114583
vt 0.052083 0.125000
vt 0.062500 0.125000
vt 0.062500 0.135417
vt 0.072917 0.135417
vt 0.072917 0.145833
vt 0.083333 0.145833
vt 0.083333 0.229167
vt 0.083333 0.239583
vt 0.093750 0.239583
vt 0.093750 0.250000
vt 0.104166 0.250000
vt 0.104166 0.260417
vt 0.125000 0.260417
vt 0.125000 0.270833
vt 0.208333 0.270833
vt 0.229167 0.250000
vt 0.239583 0.250000
vt 0.239583 0.239583
vt 0.250000 0.239583
vt 0.250000 0.229167
vt 0.260416 0.229167
vt 0.260416 0.208333
vt 0.260416 0.125000
vt 0.260416 0.104167
vt 0.250000 0.104167
vt 0.250000 0.093750
vt 0.239583 0.093750
vt 0.239583 0.083333
vt 0.229167 0.083333
vt 0.229167 0.072917
vt 0.208333 0.072917
vt 0.208333 0.062500
vt 0.125000 0.062500
vt 0.125000 0.072917
vt 0.104166 0.072917
vt 0.104166 0.083333
vt 0.093750 0.083333
vt 0.093750 0.093750
vt 0.083333 0.093750
vt 0.083333 0.104167
vt 0.072917 0.104167
vt 0.072917 0.114583
vt 0.062500 0.114583
vt 0.062500 0.104167
vt 0.052083 0.104167
vt 0.052083 0.093750
vt 0.062500 0.093750
vt 0.062500 0.083333
vt 0.072917 0.083333
vt 0.072917 0.072917
vt 0.083333 0.072917
vt 0.083333 0.062500
vt 0.093750 0.062500
vt 0.093750 0.052083
vt 0.104166 0.052083
vt 0.104166 0.041667
vt 0.125000 0.041667
vt 0.125000 0.031250
vt 0.208333 0.031250
vt 0.208333 0.041667
vt 0.229167 0.041667
vt 0.229167 0.052083
vt 0.239583 0.052083
vt 0.239583 0.062500
vt 0.250000 0.062500
vt 0.250000 0.072917
vt 0.260416 0.072917
vt 0.260416 0.083333
vt 0.270833 0.083333
vt 0.270833 0.093750
vt 0.281250 0.093750
vt 0.281250 0.104167
vt 0.291666 0.104167
vt 0.291666 0.125000
vt 0.302083 0.125000
vt 0.302083 0.208333
vt 0.281250 0.229167
vt 0.281250 0.239583
vt 0.270833 0.239583
vt 0.270833 0.250000
vt 0.260416 0.250000
vt 0.260416 0.260417
vt 0.250000 0.260417
vt 0.250000 0.270833
vt 0.145833 0.239583
vt 0.145833 0.239583
vt 0.187500 0.239583
vt 0.187500 0.239583
vt 0.197917 0.145833
vt 0.135417 0.145833
vt 0.197917 0.145833
vt 0.197917 0.145833
vt 0.135417 0.145833
vt 0.135417 0.145833
vt 0.187500 0.229167
vt 0.197917 0.229167
vt 0.197917 0.218750
vt 0.208333 0.218750
vt 0.208333 0.145833
vt 0.125000 0.145833
vt 0.125000 0.218750
vt 0.135417 0.218750
vt 0.135417 0.229167
vt 0.145833 0.229167
vt 0.208333 0.135417
vt 0.125000 0.135417
vt 0.208333 0.145833
vt 0.208333 0.218750
vt 0.197917 0.218750
vt 0.197917 0.229167
vt 0.187500 0.229167
vt 0.145833 0.229167
vt 0.135417 0.229167
vt 0.135417 0.218750
vt 0.125000 0.218750
vt 0.125000 0.145833
vn 0.0000 -1.0000 0.0000
vn 0.0000 1.0000 0.0000
vn -0.0000 0.0000 -1.0000
vn 1.0000 0.0000 0.0000
vn -1.0000 0.0000 0.0000
vn -0.0000 -0.0000 1.0000
g Dexterity_Plane.064_PICKUPS
usemtl PICKUPS
s off
f 6/1/1 2/2/1 134/3/1 138/4/1
f 31/5/2 32/6/2 164/7/2 163/8/2
f 110/9/3 109/10/3 33/11/3 35/12/3 34/13/3 36/14/3 37/15/3 38/16/3 39/17/3 40/18/3 41/19/3 42/20/3 43/21/3 44/22/3 45/23/3 46/24/3 55/25/3 56/26/3 108/27/3 107/28/3 106/29/3 105/30/3 104/31/3 103/32/3 102/33/3 101/34/3 100/35/3 99/36/3 98/37/3 97/38/3 96/39/3 94/40/3 95/41/3 93/42/3 92/43/3 91/44/3 70/45/3 73/46/3 72/47/3 74/48/3 75/49/3 76/50/3 77/51/3 78/52/3 79/53/3 81/54/3 82/55/3 80/56/3 83/57/3 85/58/3 84/59/3 86/60/3 87/61/3 88/62/3 89/63/3 90/64/3 71/65/3 69/66/3 68/67/3 67/68/3 66/69/3 65/70/3 64/71/3 63/72/3 62/73/3 61/74/3 60/75/3 59/76/3 58/77/3 57/78/3 47/79/3 48/80/3 49/81/3 50/82/3 51/83/3 52/84/3 53/85/3 54/86/3 32/6/3 31/5/3 30/87/3 29/88/3 28/89/3 27/90/3 26/91/3 25/92/3 24/93/3 23/94/3 22/95/3 21/96/3 14/97/3 13/98/3 8/99/3 12/100/3 11/101/3 9/102/3 10/103/3 7/104/3 123/105/3 124/106/3 125/107/3 127/108/3 126/109/3 128/110/3 5/111/3 4/112/3 3/113/3 1/114/3 2/2/3 6/1/3 16/115/3 15/116/3 17/117/3 18/118/3 19/119/3 20/120/3 122/121/3 121/122/3 120/123/3 119/124/3 118/125/3 117/126/3 116/127/3 115/128/3 114/129/3 112/130/3 113/131/3 111/132/3
f 266/133/3 265/134/3 270/135/3 269/136/3 268/137/3 267/138/3
f 12/100/1 8/99/1 140/139/1 144/140/1
f 47/79/4 57/78/4 189/141/4 179/142/4
f 262/143/1 289/144/1 288/145/1 261/146/1
f 21/96/5 153/147/5 146/148/5 14/97/5
f 132/149/3 129/150/3 130/151/3 131/152/3
f 45/23/5 44/22/5 176/153/5 177/154/5
f 8/99/5 13/98/5 145/155/5 140/139/5
f 265/134/2 266/133/2 286/156/2 285/157/2
f 166/158/6 167/159/6 165/160/6 241/161/6 242/162/6 243/163/6 245/164/6 244/165/6 246/166/6 247/167/6 248/168/6 249/169/6 250/170/6 251/171/6 252/172/6 253/173/6 254/174/6 152/175/6 151/176/6 150/177/6 149/178/6 147/179/6 148/180/6 138/4/6 134/3/6 133/181/6 135/182/6 136/183/6 137/184/6 260/185/6 258/186/6 259/187/6 257/188/6 256/189/6 255/190/6 139/191/6 142/192/6 141/193/6 143/194/6 144/140/6 140/139/6 145/155/6 146/148/6 153/147/6 154/195/6 155/196/6 156/197/6 157/198/6 158/199/6 159/200/6 160/201/6 161/202/6 162/203/6 163/8/6 164/7/6 186/204/6 185/205/6 184/206/6 183/207/6 182/208/6 181/209/6 180/210/6 179/142/6 189/141/6 190/211/6 191/212/6 192/213/6 193/214/6 194/215/6 195/216/6 196/217/6 197/218/6 198/219/6 199/220/6 200/221/6 201/222/6 203/223/6 222/224/6 221/225/6 220/226/6 219/227/6 218/228/6 216/229/6 217/230/6 215/231/6 212/232/6 214/233/6 213/234/6 211/235/6 210/236/6 209/237/6 208/238/6 207/239/6 206/240/6 204/241/6 205/242/6 202/243/6 223/244/6 224/245/6 225/246/6 227/247/6 226/248/6 228/249/6 229/250/6 230/251/6 231/252/6 232/253/6 233/254/6 234/255/6 235/256/6 236/257/6 237/258/6 238/259/6 239/260/6 240/261/6 188/262/6 187/263/6 178/264/6 177/154/6 176/153/6 175/265/6 174/266/6 173/267/6 172/268/6 171/269/6 170/270/6 169/271/6 168/272/6
f 281/273/1 301/274/1 299/275/1 279/276/1
f 262/143/6 261/146/6 264/277/6 263/278/6
f 102/33/5 103/32/5 235/256/5 234/255/5
f 103/32/2 104/31/2 236/257/2 235/256/2
f 104/31/5 105/30/5 237/258/5 236/257/5
f 129/150/5 132/149/5 264/277/5 261/146/5
f 46/24/1 45/23/1 177/154/1 178/264/1
f 105/30/2 106/29/2 238/259/2 237/258/2
f 106/29/5 107/28/5 239/260/5 238/259/5
f 107/28/2 108/27/2 240/261/2 239/260/2
f 67/68/1 68/67/1 200/221/1 199/220/1
f 48/80/2 47/79/2 179/142/2 180/210/2
f 56/26/5 188/262/5 240/261/5 108/27/5
f 68/67/5 69/66/5 201/222/5 200/221/5
f 20/120/1 19/119/1 151/176/1 152/175/1
f 49/81/4 48/80/4 180/210/4 181/209/4
f 50/82/2 49/81/2 181/209/2 182/208/2
f 51/83/4 50/82/4 182/208/4 183/207/4
f 95/41/2 227/247/2 225/246/2 93/42/2
f 52/84/2 51/83/2 183/207/2 184/206/2
f 72/47/4 73/46/4 205/242/4 204/241/4
f 53/85/4 52/84/4 184/206/4 185/205/4
f 123/105/5 7/104/5 139/191/5 255/190/5
f 13/98/2 14/97/2 146/148/2 145/155/2
f 74/48/2 72/47/2 204/241/2 206/240/2
f 124/106/2 123/105/2 255/190/2 256/189/2
f 75/49/4 74/48/4 206/240/4 207/239/4
f 54/86/2 53/85/2 185/205/2 186/204/2
f 125/107/5 124/106/5 256/189/5 257/188/5
f 32/6/4 54/86/4 186/204/4 164/7/4
f 76/50/2 75/49/2 207/239/2 208/238/2
f 126/109/4 127/108/4 259/187/4 258/186/4
f 77/51/4 76/50/4 208/238/4 209/237/4
f 27/90/2 28/89/2 160/201/2 159/200/2
f 15/116/1 16/115/1 148/180/1 147/179/1
f 128/110/2 126/109/2 258/186/2 260/185/2
f 17/117/4 15/116/4 147/179/4 149/178/4
f 5/111/4 128/110/4 260/185/4 137/184/4
f 78/52/2 77/51/2 209/237/2 210/236/2
f 127/108/2 125/107/2 257/188/2 259/187/2
f 79/53/4 78/52/4 210/236/4 211/235/4
f 18/118/1 17/117/1 149/178/1 150/177/1
f 81/54/2 79/53/2 211/235/2 213/234/2
f 19/119/4 18/118/4 150/177/4 151/176/4
f 82/55/4 81/54/4 213/234/4 214/233/4
f 80/56/1 82/55/1 214/233/1 212/232/1
f 4/112/2 5/111/2 137/184/2 136/183/2
f 83/57/4 80/56/4 212/232/4 215/231/4
f 71/65/1 203/223/1 201/222/1 69/66/1
f 84/59/5 85/58/5 217/230/5 216/229/5
f 35/12/1 33/11/1 165/160/1 167/159/1
f 86/60/1 84/59/1 216/229/1 218/228/1
f 21/96/2 22/95/2 154/195/2 153/147/2
f 87/61/5 86/60/5 218/228/5 219/227/5
f 22/95/5 23/94/5 155/196/5 154/195/5
f 33/11/5 109/10/5 241/161/5 165/160/5
f 88/62/1 87/61/1 219/227/1 220/226/1
f 23/94/2 24/93/2 156/197/2 155/196/2
f 89/63/5 88/62/5 220/226/5 221/225/5
f 24/93/5 25/92/5 157/198/5 156/197/5
f 90/64/1 89/63/1 221/225/1 222/224/1
f 25/92/2 26/91/2 158/199/2 157/198/2
f 110/9/5 111/132/5 243/163/5 242/162/5
f 71/65/5 90/64/5 222/224/5 203/223/5
f 26/91/5 27/90/5 159/200/5 158/199/5
f 85/58/1 83/57/1 215/231/1 217/230/1
f 264/277/6 132/149/6 284/279/6 304/280/6
f 73/46/2 70/45/2 202/243/2 205/242/2
f 70/45/4 91/44/4 223/244/4 202/243/4
f 28/89/5 29/88/5 161/202/5 160/201/5
f 6/1/4 138/4/4 148/180/4 16/115/4
f 46/24/5 178/264/5 187/263/5 55/25/5
f 92/43/4 93/42/4 225/246/4 224/245/4
f 131/152/6 263/278/6 291/281/6 271/282/6
f 109/10/1 110/9/1 242/162/1 241/161/1
f 56/26/2 55/25/2 187/263/2 188/262/2
f 58/77/4 59/76/4 191/212/4 190/211/4
f 113/131/4 112/130/4 244/165/4 245/164/4
f 30/87/4 31/5/4 163/8/4 162/203/4
f 2/2/4 1/114/4 133/181/4 134/3/4
f 1/114/2 3/113/2 135/182/2 133/181/2
f 57/78/1 58/77/1 190/211/1 189/141/1
f 3/113/4 4/112/4 136/183/4 135/182/4
f 114/129/4 115/128/4 247/167/4 246/166/4
f 115/128/1 116/127/1 248/168/1 247/167/1
f 116/127/4 117/126/4 249/169/4 248/168/4
f 59/76/1 60/75/1 192/213/1 191/212/1
f 60/75/4 61/74/4 193/214/4 192/213/4
f 131/152/4 130/151/4 262/143/4 263/278/4
f 117/126/1 118/125/1 250/170/1 249/169/1
f 95/41/5 94/40/5 226/248/5 227/247/5
f 262/143/1 130/151/1 269/136/1 289/144/1
f 34/13/5 35/12/5 167/159/5 166/158/5
f 118/125/4 119/124/4 251/171/4 250/170/4
f 36/14/1 34/13/1 166/158/1 168/272/1
f 61/74/1 62/73/1 194/215/1 193/214/1
f 37/15/5 36/14/5 168/272/5 169/271/5
f 62/73/4 63/72/4 195/216/4 194/215/4
f 112/130/1 114/129/1 246/166/1 244/165/1
f 130/151/1 129/150/1 268/137/1 269/136/1
f 119/124/1 120/123/1 252/172/1 251/171/1
f 29/88/2 30/87/2 162/203/2 161/202/2
f 38/16/1 37/15/1 169/271/1 170/270/1
f 120/123/4 121/122/4 253/173/4 252/172/4
f 96/39/5 97/38/5 229/250/5 228/249/5
f 129/150/6 261/146/6 288/145/6 268/137/6
f 63/72/1 64/71/1 196/217/1 195/216/1
f 39/17/5 38/16/5 170/270/5 171/269/5
f 97/38/2 98/37/2 230/251/2 229/250/2
f 64/71/4 65/70/4 197/218/4 196/217/4
f 94/40/2 96/39/2 228/249/2 226/248/2
f 10/103/5 9/102/5 141/193/5 142/192/5
f 121/122/1 122/121/1 254/174/1 253/173/1
f 40/18/1 39/17/1 171/269/1 172/268/1
f 122/121/4 20/120/4 152/175/4 254/174/4
f 98/37/5 99/36/5 231/252/5 230/251/5
f 9/102/2 11/101/2 143/194/2 141/193/2
f 132/149/2 131/152/2 271/282/2 284/279/2
f 41/19/5 40/18/5 172/268/5 173/267/5
f 11/101/5 12/100/5 144/140/5 143/194/5
f 99/36/2 100/35/2 232/253/2 231/252/2
f 264/277/2 304/280/2 291/281/2 263/278/2
f 42/20/1 41/19/1 173/267/1 174/266/1
f 65/70/1 66/69/1 198/219/1 197/218/1
f 100/35/5 101/34/5 233/254/5 232/253/5
f 66/69/4 67/68/4 199/220/4 198/219/4
f 7/104/2 10/103/2 142/192/2 139/191/2
f 43/21/5 42/20/5 174/266/5 175/265/5
f 91/44/2 92/43/2 224/245/2 223/244/2
f 101/34/2 102/33/2 234/255/2 233/254/2
f 44/22/1 43/21/1 175/265/1 176/153/1
f 281/273/3 279/276/3 278/283/3 277/284/3 275/285/3 276/286/3 283/287/3 284/279/3 271/282/3 272/288/3 273/289/3 274/290/3 282/291/3 280/292/3
f 286/156/6 287/293/6 288/145/6 289/144/6 290/294/6 285/157/6
f 304/280/6 303/295/6 296/296/6 295/297/6 297/298/6 298/299/6 299/275/6 301/274/6 300/300/6 302/301/6 294/302/6 293/303/6 292/304/6 291/281/6
f 284/279/2 283/287/2 303/295/2 304/280/2
f 267/138/1 268/137/1 288/145/1 287/293/1
f 113/131/1 245/164/1 243/163/1 111/132/1
f 265/134/4 285/157/4 290/294/4 270/135/4
f 266/133/5 267/138/5 287/293/5 286/156/5
f 276/286/1 275/285/1 295/297/1 296/296/1
f 275/285/5 277/284/5 297/298/5 295/297/5
f 277/284/1 278/283/1 298/299/1 297/298/1
f 278/283/5 279/276/5 299/275/5 298/299/5
f 269/136/1 270/135/1 290/294/1 289/144/1
f 281/273/4 280/292/4 300/300/4 301/274/4
f 280/292/1 282/291/1 302/301/1 300/300/1
f 282/291/4 274/290/4 294/302/4 302/301/4
f 272/288/4 292/304/4 293/303/4 273/289/4
f 272/288/2 271/282/2 291/281/2 292/304/2
f 283/287/5 276/286/5 296/296/5 303/295/5
f 274/290/1 273/289/1 293/303/1 294/302/1
