# Blender v2.91.2 OBJ File: 'ZombieContainmentGameAssets.blend'
# www.blender.org
mtllib Stamina.mtl
o Stamina_Plane.098
v -0.075847 0.365199 0.000000
v 0.340819 0.365199 0.000000
v -0.075847 0.208949 0.000000
v -0.127931 0.208949 0.000000
v -0.336264 0.104783 0.000000
v -0.180014 0.156866 0.000000
v -0.180014 0.104783 0.000000
v -0.127931 0.156866 0.000000
v 0.340819 0.000616 0.000000
v 0.549153 -0.051467 0.000000
v 0.549153 0.000616 0.000000
v 0.601236 -0.051467 0.000000
v 0.601236 -0.103551 0.000000
v 0.705403 -0.103551 0.000000
v 0.705403 -0.155634 0.000000
v 0.757486 -0.155634 0.000000
v 0.757486 -0.520218 0.000000
v -0.336264 -0.520218 0.000000
v -0.075847 0.365199 -0.100000
v 0.340819 0.365199 -0.100000
v -0.075847 0.208949 -0.100000
v -0.127931 0.208949 -0.100000
v -0.336264 0.104783 -0.100000
v -0.180014 0.156866 -0.100000
v -0.180014 0.104783 -0.100000
v -0.127931 0.156866 -0.100000
v 0.340819 0.000616 -0.100000
v 0.549153 -0.051467 -0.100000
v 0.549153 0.000616 -0.100000
v 0.601236 -0.051467 -0.100000
v 0.601236 -0.103551 -0.100000
v 0.705403 -0.103551 -0.100000
v 0.705403 -0.155634 -0.100000
v 0.757486 -0.155634 -0.100000
v 0.757486 -0.520218 -0.100000
v -0.336264 -0.520218 -0.100000
v -0.857097 0.573533 0.050000
v -0.857097 0.625616 0.050000
v -0.805014 0.573533 0.050000
v -0.805014 0.521449 0.050000
v -0.805014 0.625616 0.050000
v -0.752931 0.521449 0.050000
v -0.492514 0.625616 0.050000
v -0.388347 0.573533 0.050000
v -0.388347 0.625616 0.050000
v -0.284181 0.573533 0.050000
v -0.284181 0.521449 0.050000
v -0.180014 0.521449 0.050000
v -0.180014 0.469366 0.050000
v -0.127931 0.469366 0.050000
v -0.127931 0.417283 0.050000
v -0.075848 0.417283 0.050000
v -0.075848 0.365199 0.050000
v -0.075848 0.208949 0.050000
v -0.127931 0.208949 0.050000
v -0.492514 0.208949 0.050000
v -0.544597 0.208949 0.050000
v -0.544597 0.313116 0.050000
v -0.596681 0.313116 0.050000
v -0.596681 0.417283 0.050000
v -0.700847 0.417283 0.050000
v -0.700847 0.469366 0.050000
v -0.752931 0.469366 0.050000
v -0.492514 0.156866 0.050000
v -0.440430 0.156866 0.050000
v -0.440430 0.104783 0.050000
v -0.336264 0.104783 0.050000
v -0.180014 0.156866 0.050000
v -0.180014 0.104783 0.050000
v -0.127931 0.156866 0.050000
v -0.492514 0.677699 0.050000
v -0.805014 0.677699 0.050000
v -0.857097 0.573533 -0.150000
v -0.857097 0.625616 -0.150000
v -0.805014 0.573533 -0.150000
v -0.805014 0.521449 -0.150000
v -0.805014 0.625616 -0.150000
v -0.752931 0.521449 -0.150000
v -0.492514 0.625616 -0.150000
v -0.388347 0.573533 -0.150000
v -0.388347 0.625616 -0.150000
v -0.284181 0.573533 -0.150000
v -0.284181 0.521449 -0.150000
v -0.180014 0.521449 -0.150000
v -0.180014 0.469366 -0.150000
v -0.127931 0.469366 -0.150000
v -0.127931 0.417283 -0.150000
v -0.075848 0.417283 -0.150000
v -0.075848 0.365199 -0.150000
v -0.075848 0.208949 -0.150000
v -0.127931 0.208949 -0.150000
v -0.492514 0.208949 -0.150000
v -0.544597 0.208949 -0.150000
v -0.544597 0.313116 -0.150000
v -0.596681 0.313116 -0.150000
v -0.596681 0.417283 -0.150000
v -0.700847 0.417283 -0.150000
v -0.700847 0.469366 -0.150000
v -0.752931 0.469366 -0.150000
v -0.492514 0.156866 -0.150000
v -0.440430 0.156866 -0.150000
v -0.440430 0.104783 -0.150000
v -0.336264 0.104783 -0.150000
v -0.180014 0.156866 -0.150000
v -0.180014 0.104783 -0.150000
v -0.127931 0.156866 -0.150000
v -0.492514 0.677699 -0.150000
v -0.805014 0.677699 -0.150000
vt 0.792774 0.485564
vt 0.792774 0.485564
vt 0.792774 0.485564
vt 0.792774 0.485564
vt 0.781250 0.572917
vt 0.760417 0.572917
vt 0.760417 0.572917
vt 0.781250 0.572917
vt 0.697917 0.541667
vt 0.718750 0.541667
vt 0.718750 0.541667
vt 0.697917 0.541667
vt 0.770833 0.354167
vt 0.770833 0.479167
vt 0.802083 0.479167
vt 0.802083 0.489583
vt 0.812500 0.489583
vt 0.812500 0.500000
vt 0.822917 0.500000
vt 0.822917 0.531250
vt 0.906250 0.531250
vt 0.906250 0.458333
vt 0.947917 0.458333
vt 0.947917 0.447917
vt 0.958333 0.447917
vt 0.958333 0.437500
vt 0.979167 0.437500
vt 0.979167 0.427083
vt 0.989583 0.427083
vt 0.989583 0.354167
vt 0.958333 0.437500
vt 0.979167 0.437500
vt 0.947917 0.458333
vt 0.906250 0.458333
vt 0.906250 0.531250
vt 0.822917 0.531250
vt 0.822917 0.500000
vt 0.812500 0.500000
vt 0.812500 0.489583
vt 0.802083 0.489583
vt 0.802083 0.479167
vt 0.770833 0.479167
vt 0.770833 0.354167
vt 0.989583 0.354167
vt 0.989583 0.427083
vt 0.979167 0.427083
vt 0.958333 0.447917
vt 0.947917 0.447917
vt 0.792774 0.485564
vt 0.792774 0.485564
vt 0.792774 0.485564
vt 0.792774 0.485564
vt 0.792774 0.485564
vt 0.792774 0.485564
vt 0.792774 0.485564
vt 0.792774 0.485564
vt 0.792774 0.485564
vt 0.792774 0.485564
vt 0.792774 0.485564
vt 0.792774 0.485564
vt 0.792774 0.485564
vt 0.792774 0.485564
vt 0.770833 0.479167
vt 0.770833 0.479167
vt 0.792774 0.485564
vt 0.792774 0.485564
vt 0.792774 0.485564
vt 0.792774 0.485564
vt 0.817146 0.515124
vt 0.817146 0.515124
vt 0.817146 0.515124
vt 0.817146 0.515124
vt 0.817146 0.515124
vt 0.817146 0.515124
vt 0.817146 0.515124
vt 0.817146 0.515124
vt 0.792774 0.485564
vt 0.792774 0.485564
vt 0.822917 0.531250
vt 0.822917 0.531250
vt 0.822917 0.500000
vt 0.812500 0.500000
vt 0.812500 0.489583
vt 0.802083 0.489583
vt 0.802083 0.479167
vt 0.750000 0.479167
vt 0.750000 0.489583
vt 0.739583 0.489583
vt 0.739583 0.500000
vt 0.729167 0.500000
vt 0.729167 0.520833
vt 0.718750 0.520833
vt 0.697917 0.552083
vt 0.687500 0.552083
vt 0.687500 0.562500
vt 0.677083 0.562500
vt 0.677083 0.572917
vt 0.666667 0.572917
vt 0.666667 0.583333
vt 0.677083 0.583333
vt 0.677083 0.593750
vt 0.739583 0.593750
vt 0.739583 0.583333
vt 0.760417 0.583333
vt 0.781250 0.562500
vt 0.802083 0.562500
vt 0.802083 0.552083
vt 0.812500 0.552083
vt 0.812500 0.541667
vt 0.822917 0.541667
vt 0.802083 0.479167
vt 0.802083 0.489583
vt 0.812500 0.489583
vt 0.812500 0.500000
vt 0.822917 0.500000
vt 0.822917 0.541667
vt 0.812500 0.541667
vt 0.812500 0.552083
vt 0.802083 0.552083
vt 0.802083 0.562500
vt 0.781250 0.562500
vt 0.760417 0.583333
vt 0.739583 0.583333
vt 0.739583 0.593750
vt 0.677083 0.593750
vt 0.677083 0.583333
vt 0.666667 0.583333
vt 0.666667 0.572917
vt 0.677083 0.572917
vt 0.677083 0.562500
vt 0.687500 0.562500
vt 0.687500 0.552083
vt 0.697917 0.552083
vt 0.718750 0.520833
vt 0.729167 0.520833
vt 0.729167 0.500000
vt 0.739583 0.500000
vt 0.739583 0.489583
vt 0.750000 0.489583
vt 0.750000 0.479167
vn 0.0000 1.0000 0.0000
vn 0.0000 -1.0000 0.0000
vn -0.0000 0.0000 -1.0000
vn -0.0000 -0.0000 1.0000
vn -1.0000 -0.0000 0.0000
vn 1.0000 0.0000 0.0000
g Stamina_Plane.098_PICKUPS
usemtl PICKUPS
s off
f 7/1/1 5/2/1 67/3/1 69/4/1
f 46/5/2 44/6/2 80/7/2 82/8/2
f 61/9/1 60/10/1 96/11/1 97/12/1
f 18/13/3 5/14/3 7/15/3 6/16/3 8/17/3 4/18/3 3/19/3 1/20/3 2/21/3 9/22/3 11/23/3 10/24/3 12/25/3 13/26/3 14/27/3 15/28/3 16/29/3 17/30/3
f 14/27/2 13/26/2 31/31/2 32/32/2
f 29/33/4 27/34/4 20/35/4 19/36/4 21/37/4 22/38/4 26/39/4 24/40/4 25/41/4 23/42/4 36/43/4 35/44/4 34/45/4 33/46/4 32/32/4 31/31/4 30/47/4 28/48/4
f 9/22/5 2/21/5 20/35/5 27/34/5
f 11/23/2 9/22/2 27/34/2 29/33/2
f 18/13/6 36/43/6 23/42/6 5/14/6
f 10/24/5 11/23/5 29/33/5 28/48/5
f 12/25/2 10/24/2 28/48/2 30/47/2
f 13/26/5 12/25/5 30/47/5 31/31/5
f 15/28/5 14/27/5 32/32/5 33/46/5
f 16/29/2 15/28/2 33/46/2 34/45/2
f 26/49/5 22/50/5 91/51/5 106/52/5
f 8/53/1 6/54/1 68/55/1 70/56/1
f 24/57/1 26/49/1 106/52/1 104/58/1
f 25/59/1 105/60/1 103/61/1 23/62/1
f 6/54/5 7/1/5 69/4/5 68/55/5
f 18/13/1 17/30/1 35/44/1 36/43/1
f 25/59/5 24/57/5 104/58/5 105/60/5
f 5/14/4 23/42/4 103/63/4 67/64/4
f 3/65/1 4/66/1 55/67/1 54/68/1
f 4/66/5 8/53/5 70/56/5 55/67/5
f 1/69/5 3/70/5 54/71/5 53/72/5
f 21/73/5 19/74/5 89/75/5 90/76/5
f 22/50/1 21/77/1 90/78/1 91/51/1
f 1/20/2 53/79/2 89/80/2 19/36/2 20/35/2 2/21/2
f 53/79/3 54/81/3 55/82/3 70/83/3 68/84/3 69/85/3 67/64/3 66/86/3 65/87/3 64/88/3 56/89/3 57/90/3 58/91/3 59/92/3 60/10/3 61/9/3 62/93/3 63/94/3 42/95/3 40/96/3 39/97/3 37/98/3 38/99/3 41/100/3 72/101/3 71/102/3 43/103/3 45/104/3 44/6/3 46/5/3 47/105/3 48/106/3 49/107/3 50/108/3 51/109/3 52/110/3
f 103/63/4 105/111/4 104/112/4 106/113/4 91/114/4 90/115/4 89/80/4 88/116/4 87/117/4 86/118/4 85/119/4 84/120/4 83/121/4 82/8/4 80/7/4 81/122/4 79/123/4 107/124/4 108/125/4 77/126/4 74/127/4 73/128/4 75/129/4 76/130/4 78/131/4 99/132/4 98/133/4 97/12/4 96/11/4 95/134/4 94/135/4 93/136/4 92/137/4 100/138/4 101/139/4 102/140/4
f 17/30/5 16/29/5 34/45/5 35/44/5
f 71/102/2 72/101/2 108/125/2 107/124/2
f 58/91/6 57/90/6 93/136/6 94/135/6
f 40/96/1 42/95/1 78/131/1 76/130/1
f 59/92/1 58/91/1 94/135/1 95/134/1
f 41/100/2 38/99/2 74/127/2 77/126/2
f 60/10/6 59/92/6 95/134/6 96/11/6
f 62/93/6 61/9/6 97/12/6 98/133/6
f 44/6/5 45/104/5 81/122/5 80/7/5
f 63/94/1 62/93/1 98/133/1 99/132/1
f 42/95/6 63/94/6 99/132/6 78/131/6
f 57/90/1 56/89/1 92/137/1 93/136/1
f 47/105/5 46/5/5 82/8/5 83/121/5
f 56/89/6 64/88/6 100/138/6 92/137/6
f 64/88/1 65/87/1 101/139/1 100/138/1
f 65/87/6 66/86/6 102/140/6 101/139/6
f 49/107/5 48/106/5 84/120/5 85/119/5
f 50/108/2 49/107/2 85/119/2 86/118/2
f 51/109/5 50/108/5 86/118/5 87/117/5
f 52/110/2 51/109/2 87/117/2 88/116/2
f 43/103/5 71/102/5 107/124/5 79/123/5
f 53/79/5 52/110/5 88/116/5 89/80/5
f 45/104/2 43/103/2 79/123/2 81/122/2
f 48/106/2 47/105/2 83/121/2 84/120/2
f 38/99/6 37/98/6 73/128/6 74/127/6
f 37/98/1 39/97/1 75/129/1 73/128/1
f 39/97/6 40/96/6 76/130/6 75/129/6
f 72/101/6 41/100/6 77/126/6 108/125/6
f 66/86/1 67/64/1 103/63/1 102/140/1
